<svg width="29" height="28" viewBox="0 0 29 28" fill="none" xmlns="http://www.w3.org/2000/svg">
<g id="flat-color-icons:google">
<path id="Vector" d="M25.6699 11.6123H24.7382V11.5643H14.3283V16.1909H20.8651C19.9115 18.8841 17.3489 20.8175 14.3283 20.8175C10.4957 20.8175 7.38839 17.7101 7.38839 13.8776C7.38839 10.045 10.4957 6.93764 14.3283 6.93764C16.0974 6.93764 17.7069 7.60503 18.9324 8.69518L22.2039 5.42359C20.1382 3.49834 17.3749 2.31104 14.3283 2.31104C7.94069 2.31104 2.76178 7.48995 2.76178 13.8776C2.76178 20.2652 7.94069 25.4441 14.3283 25.4441C20.7159 25.4441 25.8948 20.2652 25.8948 13.8776C25.8948 13.102 25.815 12.345 25.6699 11.6123Z" fill="#FFC107"/>
<path id="Vector_2" d="M4.09546 8.49392L7.89564 11.2809C8.9239 8.73508 11.4142 6.93764 14.3284 6.93764C16.0975 6.93764 17.7069 7.60503 18.9324 8.69518L22.204 5.42359C20.1382 3.49834 17.375 2.31104 14.3284 2.31104C9.88566 2.31104 6.03285 4.81924 4.09546 8.49392Z" fill="#FF3D00"/>
<path id="Vector_3" d="M14.3283 25.4442C17.3159 25.4442 20.0306 24.3008 22.0831 22.4415L18.5032 19.4122C17.3029 20.325 15.8362 20.8187 14.3283 20.8175C11.3198 20.8175 8.76537 18.8992 7.80303 16.2222L4.03119 19.1283C5.94545 22.8741 9.83296 25.4442 14.3283 25.4442Z" fill="#4CAF50"/>
<path id="Vector_4" d="M25.6699 11.6123H24.7382V11.5643H14.3283V16.1909H20.8651C20.4089 17.4728 19.5872 18.5928 18.5015 19.4128L18.5032 19.4116L22.0831 22.4409C21.8298 22.6711 25.8948 19.6609 25.8948 13.8776C25.8948 13.1021 25.815 12.3451 25.6699 11.6123Z" fill="#1976D2"/>
</g>
</svg>
